<svg xmlns="http://www.w3.org/2000/svg" width="48" height="48" viewBox="0 0 48 48">
  <defs>
    <radialGradient id="leather" cx="32%" cy="24%" r="72%">
      <stop offset="0" stop-color="#ff8a8a"/>
      <stop offset="0.18" stop-color="#d42b3b"/>
      <stop offset="0.58" stop-color="#8c1625"/>
      <stop offset="1" stop-color="#31060d"/>
    </radialGradient>
    <filter id="shadow" x="-30%" y="-20%" width="160%" height="170%">
      <feDropShadow dx="1.5" dy="4" stdDeviation="2.2" flood-color="#000000" flood-opacity="0.46"/>
    </filter>
  </defs>
  <circle cx="24" cy="24" r="19" fill="url(#leather)" filter="url(#shadow)"/>
  <path d="M15.5 9.5c7.5 7.6 9.6 20.6 4.9 31" fill="none" stroke="#f9e3d0" stroke-width="2.2" stroke-linecap="round" opacity="0.9"/>
  <path d="M31.6 7.8c-6.4 8-8.2 21.8-3.8 31.8" fill="none" stroke="#f9e3d0" stroke-width="2.2" stroke-linecap="round" opacity="0.9"/>
  <path d="M16.4 14.5l-3.1 1.9M18.4 19.6l-3.4 1.7M19.3 25l-3.5 1.4M19.3 30.3l-3.3 1.5M18 35.4l-2.8 1.9M31 13.1l3.1 1.8M29.5 18.7l3.4 1.5M28.9 24.3l3.5 1.3M29.4 29.8l3.4 1.5M30.8 35l2.8 1.9" fill="none" stroke="#f9e3d0" stroke-width="1.35" stroke-linecap="round" opacity="0.85"/>
  <path d="M16 12c4.8 7.6 6.1 17.2 3.4 25.1M31.2 11c-4.2 7.8-5.2 17.9-2.4 26.1" fill="none" stroke="#6c0c18" stroke-width="1.1" stroke-linecap="round" opacity="0.55"/>
  <circle cx="17" cy="15" r="1.6" fill="#ffb1a9" opacity="0.45"/>
</svg>
